<svg width="80" height="40" viewBox="0 0 80 40" fill="none" xmlns="http://www.w3.org/2000/svg">
<path d="M5.18422 11.496C5.16822 6.14406 8.58429 3.18407 14.8644 3.16007C19.3925 3.14407 20.1925 6.10406 20.2005 7.17606C20.2085 9.24005 17.2885 11.424 17.2885 11.424C17.2885 11.424 17.4485 12.704 19.9525 12.696C22.4566 12.688 24.8886 11.032 24.8726 6.90406C24.8566 2.15208 19.8885 -0.015912 14.9684 8.78921e-05C10.8643 0.0160878 -0.0398911 0.592085 0.00010976 11.416C0.0321104 21.032 18.1685 21.88 18.1925 28.04C18.2165 34.7279 10.7123 36.5279 8.18428 36.5359C5.65623 36.5439 4.61621 34.7279 4.60821 33.7359C4.59221 28.32 9.97632 26.816 9.97632 26.816C9.97632 26.416 9.66431 24.616 7.57627 24.616C2.20016 24.632 0.0641111 29.256 0.0801115 33.7759C0.0961118 37.6159 2.80817 40.0159 6.90426 39.9999C14.7364 39.9679 23.5686 36.1519 23.5366 27.656C23.5046 19.712 5.20822 17.632 5.18422 11.496Z" fill="#F7FAFC"/>
<path d="M79.8498 32.768C79.7858 32.616 79.6098 32.656 79.3778 32.8479C78.4898 33.5839 76.4577 35.6559 71.6976 35.6799C63.0334 35.7119 61.5214 21.424 61.5214 21.424C61.5214 21.424 68.1296 16.488 69.1616 14.496C70.1936 12.504 66.9055 12.064 66.9055 12.064C66.9055 12.064 62.2814 17.688 59.0094 19.344C59.3614 16.896 61.7854 11.32 61.9294 8.11205C62.0894 4.90407 58.0813 5.68006 57.4413 5.99206C57.4493 7.39206 53.9132 20.104 52.6252 27.088C51.8652 28.296 50.7852 29.688 49.8172 29.688C49.2572 29.688 49.0491 28.648 49.0411 27.152C49.0331 25.08 50.1772 21.768 50.1692 19.752C50.1612 18.36 49.5292 18.272 48.9771 18.28C48.8571 18.28 48.1931 18.296 48.0731 18.296C46.6651 18.304 47.1211 17.088 45.8571 17.096C41.961 17.112 37.0009 21.36 36.7849 27.784C35.4729 28.656 33.6328 29.752 32.6888 29.752C31.7048 29.752 31.4568 28.84 31.4568 28.056C31.4488 26.672 33.6968 18.448 33.6968 18.448C33.6968 18.448 36.5449 17.72 37.7929 17.472C38.7369 17.288 38.9929 17.224 39.3689 16.768C39.745 16.312 40.449 15.376 41.025 14.528C41.601 13.68 41.033 13.032 39.969 13.032C38.5689 13.04 34.8168 13.92 34.8168 13.92C34.8168 13.92 36.6249 6.16006 36.6169 6.00006C36.6169 5.84006 36.4089 5.76006 36.1129 5.76006C35.4329 5.76006 34.2088 6.12806 33.4328 6.40806C32.2408 6.83206 31.2648 8.29605 31.0728 8.97605C30.8808 9.65605 29.5287 14.992 29.5287 14.992C29.5287 14.992 22.3046 17.488 21.3126 17.864C21.2486 17.888 21.2086 17.944 21.2086 18.008C21.2086 18.072 22.0406 21.232 23.7286 21.232C24.9526 21.224 28.4967 19.776 28.4967 19.776C28.4967 19.776 26.6647 27.056 26.6727 29.48C26.6807 31.04 27.4087 32.8559 30.4408 32.8479C33.2728 32.84 35.7449 31.392 37.1289 30.368C37.8889 32.288 39.673 32.8079 40.897 32.8079C43.633 32.7999 45.7531 30.624 46.0171 30.328C46.3771 31.168 47.2091 32.784 49.1212 32.776C50.2012 32.776 51.3212 31.552 52.1532 30.384C52.1372 30.672 52.1372 30.92 52.1612 31.12C52.4892 34.1359 56.9693 32.36 57.2093 31.944C57.3613 29.768 57.2653 25.304 58.1373 22.552C59.2894 31.944 63.6735 38.2559 71.5536 38.2239C75.9617 38.2079 78.2098 36.9439 79.1538 35.8959C80.2498 34.6879 80.0338 33.2079 79.8498 32.768ZM42.049 29.672C38.2649 29.688 43.209 19.872 46.4331 19.864C46.4411 21.128 46.3691 29.656 42.049 29.672Z" fill="#F7FAFC"/>
<path d="M72.7617 32.68C76.1777 32.672 78.8258 30.416 79.3058 29.688C79.9298 28.736 78.5778 27.296 78.1458 27.328C77.0657 28.36 75.9377 29.608 73.4097 29.616C70.4336 29.624 71.1056 26.344 71.1056 26.344C71.1056 26.344 76.8417 27.088 79.1458 22.96C79.8818 21.64 79.9138 19.816 79.6178 19.032C79.3138 18.232 77.6578 16.792 75.0017 17.016C71.7376 17.288 67.6335 20.688 66.7295 24.776C66.0015 28.056 67.3695 32.7039 72.7617 32.68ZM76.4017 18.92C76.9377 18.904 76.8897 19.784 76.7457 20.712C76.5457 21.968 74.8177 25.152 71.5376 25.032C71.7616 23.176 74.2017 19 76.4017 18.92Z" fill="#F7FAFC"/>
</svg>
